<?xml version="1.0" standalone="no"?>
<!DOCTYPE svg PUBLIC "-//W3C//DTD SVG 20010904//EN"
 "http://www.w3.org/TR/2001/REC-SVG-20010904/DTD/svg10.dtd">
<svg version="1.0" xmlns="http://www.w3.org/2000/svg"
 width="357.000000pt" height="148.000000pt" viewBox="0 0 357.000000 148.000000"
 preserveAspectRatio="xMidYMid meet">

<g transform="translate(0.000000,148.000000) scale(0.100000,-0.100000)"
fill="#000000" stroke="none">
<path d="M0 740 l0 -740 1785 0 1785 0 0 740 0 740 -1785 0 -1785 0 0 -740z
m2070 30 c13 -8 15 -53 18 -283 2 -169 -1 -284 -7 -300 l-11 -27 -648 0 c-491
0 -651 3 -660 12 -17 17 -17 579 0 596 15 15 1284 17 1308 2z"/>
</g>
</svg>
